PathFileType	4	(X/Y/Z)	c:/Users/goper/Files/vsCode/490R/osim_files/A06/A06_Slow_06.trc
DataRate	CameraRate	NumFrames	NumMarkers	Units                	OrigDataRate	OrigDataStartFrame	OrigNumFrames
120.00	120.00	8	36	mm	120.0	602	1202
                Frame#	Time	LPSIS			LASIS			LTH1			LTH2			LTH3			LTH4			LLFE			LMFE			LSH1			LSH2			LSH3			LSH4			LLMAL			LMMAL			LCAL			LMTP5			LTOE			LMTP1			RPSIS			RASIS			RTH1			RTH2			RTH3			RTH4			RLFE			RMFE			RSH1			RSH2			RSH3			RSH4			RLMAL			RMMAL			RCAL			RMTP1			RTOE			RMTP5		
		X1	Y1	Z1	X2	Y2	Z2	X3	Y3	Z3	X4	Y4	Z4	X5	Y5	Z5	X6	Y6	Z6	X7	Y7	Z7	X8	Y8	Z8	X9	Y9	Z9	X10	Y10	Z10	X11	Y11	Z11	X12	Y12	Z12	X13	Y13	Z13	X14	Y14	Z14	X15	Y15	Z15	X16	Y16	Z16	X17	Y17	Z17	X18	Y18	Z18	X19	Y19	Z19	X20	Y20	Z20	X21	Y21	Z21	X22	Y22	Z22	X23	Y23	Z23	X24	Y24	Z24	X25	Y25	Z25	X26	Y26	Z26	X27	Y27	Z27	X28	Y28	Z28	X29	Y29	Z29	X30	Y30	Z30	X31	Y31	Z31	X32	Y32	Z32	X33	Y33	Z33	X34	Y34	Z34	X35	Y35	Z35	X36	Y36	Z36

602	5.00833	-899.22174	982.33667	363.93805	-1093.41821	930.11090	419.50082	-956.41321	579.87708	447.43549	-955.37592	536.59180	440.10034	-1018.13763	568.26953	428.75220	-1002.03442	525.35046	423.07349	-958.48389	461.41052	419.14069	-948.36542	459.05130	309.28763	-879.55957	382.52426	437.82455	-874.53033	336.63541	441.42828	-941.14020	370.95032	425.54703	-926.97870	328.80890	427.06189	-809.76202	93.18295	396.84903	-822.78009	105.12138	308.66534	-739.31360	85.66146	348.16327	-921.83008	40.79902	408.37051	-959.43701	57.34010	349.45715	-932.52002	50.49340	312.41318	-888.80133	1001.98566	234.13995	-1061.39197	977.31036	168.02855	-1070.58044	590.62384	121.99129	-1093.73682	554.26556	121.12691	-1127.46960	616.20532	131.64810	-1142.06067	573.73639	126.98404	-1161.91125	458.53860	144.37137	-1163.59875	457.26031	233.65228	-1197.08704	305.31549	153.71240	-1214.73792	260.70032	154.55917	-1253.90149	321.64200	165.05840	-1264.85205	275.54568	159.37668	-1261.99133	130.22495	140.82475	-1274.18457	136.61765	226.60951	-1218.52319	88.33640	190.01736	-1413.89587	145.23198	218.06630	-1423.27283	162.13896	177.54810	-1402.79578	138.34221	128.66425
603	5.01667	-906.87610	980.59729	363.38351	-1101.53406	928.74084	418.04822	-961.91754	579.29266	446.63354	-960.37958	535.95148	439.21252	-1023.57251	567.14307	427.93912	-1007.12427	524.39307	422.18173	-962.73193	460.81586	418.40445	-952.20099	458.62177	308.32227	-882.76392	382.76312	437.14972	-877.38776	336.83624	440.78333	-942.16003	368.86340	423.90317	-929.67859	328.53275	426.45007	-810.42224	93.66592	395.18219	-823.46930	105.62661	308.39737	-739.67078	86.60641	348.09961	-921.92841	40.75092	408.34824	-959.74835	57.01552	349.42316	-932.83423	50.30437	312.35092	-896.52533	999.98920	233.54509	-1068.75562	975.95111	166.49394	-1080.29187	589.15607	121.31185	-1103.55652	553.07709	120.32185	-1136.88452	615.35229	130.50101	-1151.65796	572.95251	125.83334	-1172.61023	457.93570	143.43903	-1174.76184	457.07462	232.69955	-1209.28479	305.16028	153.05560	-1227.37585	260.75058	153.86441	-1266.03931	322.12579	163.82794	-1277.93677	275.90967	158.41911	-1275.70715	130.75633	140.15398	-1288.55261	137.46754	225.86435	-1233.15271	88.51747	189.88589	-1428.19043	147.38371	215.77901	-1437.04114	164.24698	175.49817	-1416.65356	140.20384	127.18261
604	5.02500	-914.85663	978.82684	362.66391	-1109.90820	927.51843	416.80029	-967.50378	578.81042	445.79727	-965.43219	535.47394	438.52539	-1028.93030	566.08398	427.15109	-1012.28870	523.53052	421.40247	-967.05206	460.22217	417.74045	-956.48944	458.14825	307.57889	-886.35547	382.97021	436.53638	-880.45355	337.13171	440.26590	-945.56952	368.55673	423.34396	-932.59558	328.30676	425.93283	-811.05011	94.48723	394.94321	-824.24744	106.17962	308.22339	-740.70831	87.83108	347.52426	-922.13928	40.71407	408.31473	-960.16327	56.68747	349.42133	-933.03723	50.11771	312.30637	-904.55975	998.02148	232.76688	-1076.50366	974.41534	165.08473	-1089.68201	587.80530	120.60819	-1113.21204	551.90558	119.60017	-1146.17371	614.34674	129.36659	-1161.23218	572.01270	124.78265	-1182.99890	457.22934	142.47368	-1185.67883	456.63995	231.76250	-1221.07825	304.82291	152.33279	-1239.40369	260.42795	152.86172	-1277.75146	322.29175	162.76454	-1290.12244	276.14145	157.46358	-1288.82678	131.09431	139.36400	-1302.32495	138.02502	225.07204	-1247.08826	88.55035	189.53300	-1441.70911	149.15738	214.11371	-1450.25110	166.02277	173.76939	-1429.65625	141.69206	125.55032
605	5.03333	-922.92999	977.71826	361.98550	-1118.33630	926.32666	415.54800	-973.07452	578.32855	444.99203	-970.69263	535.07642	437.62738	-1034.52576	565.12543	426.50757	-1017.41705	522.86414	420.81989	-971.58051	459.81763	417.16977	-961.00214	457.68774	306.99765	-889.91620	383.31583	435.98380	-883.61694	337.54053	439.74210	-949.12195	368.33444	422.80753	-935.77252	328.24323	425.45633	-811.92468	95.48886	394.74545	-825.09454	106.83578	308.02078	-741.45416	89.25288	347.44434	-922.33862	40.69397	408.29327	-960.61804	56.30297	349.38712	-933.31354	49.87483	312.23599	-912.71600	996.08875	231.91699	-1084.58618	972.88971	163.63712	-1099.06177	586.32739	119.86175	-1122.65417	550.51862	118.88020	-1155.39868	613.28851	128.31270	-1170.64954	570.98914	123.79050	-1193.14209	456.33490	141.62440	-1196.20996	455.96887	230.84825	-1232.42090	304.19360	151.55092	-1251.03809	260.00772	152.07080	-1289.39355	323.17551	160.59216	-1301.32446	275.96112	156.52577	-1302.34790	130.62370	139.68159	-1315.25696	138.22844	224.30199	-1260.16724	88.33512	189.04863	-1454.54553	150.39253	212.64285	-1462.74561	167.32118	172.25485	-1442.07751	142.78011	124.17581
606	5.04167	-931.00275	975.95514	360.96094	-1126.74097	925.13458	414.32446	-978.75775	578.01678	444.19528	-976.44818	534.32312	436.69876	-1039.96045	564.35773	425.85495	-1022.69202	522.12012	420.28043	-975.95361	459.33810	416.70917	-965.67017	457.25375	306.54694	-893.57593	383.66006	435.47549	-886.74115	337.98141	439.33109	-952.47900	368.00317	422.35474	-938.68030	328.07578	425.02078	-812.61761	96.50866	394.68951	-826.06091	107.58026	307.88885	-742.14642	90.84573	347.32483	-922.54083	40.57064	408.32129	-961.01892	55.85700	349.47443	-933.73334	49.72704	312.25870	-921.24518	994.25012	230.80922	-1092.85461	971.17957	162.34061	-1108.32446	584.82550	119.07969	-1132.06152	549.20117	117.99864	-1164.64905	612.04236	127.39400	-1180.01953	569.77960	122.84227	-1202.96106	455.22488	140.78427	-1206.10083	454.92673	229.96155	-1243.25818	303.39590	150.77954	-1262.40222	259.37347	151.49710	-1300.23328	322.73355	159.70456	-1312.83545	275.65009	155.62238	-1314.25195	130.28964	138.85522	-1327.30872	138.03761	223.51462	-1272.50110	87.70590	188.46356	-1466.55164	151.12271	211.44104	-1474.47583	167.99506	171.08154	-1453.84863	143.34288	123.01660
607	5.05000	-939.50446	974.28137	359.76566	-1135.29871	923.97809	413.39178	-984.50305	577.74420	443.46176	-981.12848	534.50885	436.44714	-1045.68164	563.43774	425.43997	-1028.18579	521.49506	419.97379	-980.64484	459.00168	416.35391	-970.53772	456.78635	306.16232	-897.41565	384.13992	435.13953	-890.10992	338.53812	439.03104	-956.26050	367.79346	422.12872	-942.00806	328.04031	424.73779	-813.67249	97.56354	394.68555	-827.07678	108.52125	307.94220	-743.10620	92.53063	347.42725	-922.79431	40.40691	408.38348	-961.46545	55.42702	349.53461	-934.21179	49.61332	312.27527	-929.73267	992.40540	229.48949	-1101.45117	969.48016	161.02736	-1117.49963	583.26062	118.24213	-1141.37476	547.69659	117.29296	-1173.68152	610.54456	126.48611	-1189.28186	568.36041	121.95578	-1212.53564	453.90070	139.93317	-1215.78796	453.70184	229.14642	-1253.43628	302.37747	149.86261	-1273.04858	258.35236	150.65350	-1310.46545	321.94418	158.91714	-1323.37390	274.98016	154.80440	-1325.35559	129.66115	137.97426	-1338.69434	137.45374	222.72920	-1284.15576	86.78789	187.77895	-1477.87097	151.21991	210.55400	-1485.63538	168.20714	170.17854	-1465.04993	143.42204	122.16629
608	5.05833	-948.07385	972.63300	358.46799	-1143.93750	922.82574	412.49466	-990.38251	577.53247	442.80878	-986.60968	534.32300	435.86237	-1051.36743	562.33691	425.39355	-1033.61914	520.91296	419.70047	-985.39191	458.63458	416.16757	-975.52240	456.35806	305.82925	-901.43158	384.71225	434.82675	-893.63495	339.11984	438.77637	-960.02759	367.66339	421.90268	-945.44080	328.09067	424.64484	-814.62189	98.81757	394.77527	-828.17383	109.58600	308.02444	-744.03302	94.43589	347.54062	-923.09314	40.26419	408.51389	-961.30414	54.00264	349.98917	-934.74597	49.59533	312.29324	-938.46161	990.63690	228.03241	-1110.38574	967.78809	159.80795	-1126.57178	581.67383	117.36636	-1150.51624	546.11920	116.36472	-1182.65735	608.98047	125.59238	-1198.34302	566.80762	121.10869	-1221.69360	452.39719	139.15836	-1224.98206	452.13654	228.38062	-1263.15332	300.98032	148.77490	-1283.08447	257.11398	149.88193	-1320.29333	320.78729	158.09486	-1333.25317	274.11377	154.10606	-1335.92358	128.59598	137.18597	-1349.17261	136.38803	221.94942	-1294.77002	85.54910	186.89581	-1488.24402	150.77094	209.86807	-1495.86804	167.99521	169.23965	-1475.54077	142.99602	121.45440
609	5.06667	-956.62549	971.05194	356.82278	-1152.49719	921.71295	411.64807	-997.25867	577.71838	442.75299	-991.45941	534.47351	433.94827	-1056.80481	562.13464	425.00916	-1039.19788	520.40234	419.43857	-990.26123	458.48343	415.95807	-980.73041	456.09750	305.55338	-905.34283	385.37482	434.65057	-897.16156	339.87753	438.64835	-963.90198	367.66864	421.78040	-948.77563	328.23730	424.61099	-815.64563	100.11474	394.93295	-829.40002	110.72671	308.20685	-745.07977	96.56081	347.68900	-923.32520	40.09940	408.64944	-961.61975	53.42803	350.05182	-935.25549	49.66637	312.38177	-947.36346	988.92468	226.38980	-1119.55457	966.07434	158.68463	-1135.61401	580.01807	116.40556	-1159.50366	544.44727	115.41933	-1191.81262	607.34351	124.85415	-1207.33203	565.09790	120.31234	-1230.64465	450.63809	138.28127	-1233.61450	450.31024	227.53357	-1272.33411	299.35950	147.92116	-1292.41711	255.52322	148.98895	-1329.49719	319.30093	157.33949	-1342.54346	272.68942	153.35033	-1345.71118	127.13988	136.32172	-1358.68982	134.85788	221.13766	-1304.62244	83.85735	185.99390	-1497.68616	149.62759	209.33423	-1505.54810	166.75920	168.57108	-1485.51135	141.98779	120.90926
